<svg version="1.2" xmlns="http://www.w3.org/2000/svg" viewBox="0 0 512 80" width="512" height="80">
	<title>tekhnokampus-svg</title>
	<style>
		.s0 { fill: #f3bd53 } 
		.s1 { fill: #f3bf57 } 
		.s2 { fill: #f3be56 } 
		.s3 { fill: #f3be54 } 
		.s4 { fill: #1f2250 } 
		.s5 { fill: #1e2150 } 
		.s6 { fill: #1e214f } 
		.s7 { fill: #202351 } 
		.s8 { fill: #1c1f4e } 
	</style>
	<path id="Layer" class="s0" d="m293.5 64c0.3-2.2 0.5-4.1 0.8-6.1q1.8-11.5 3.8-23c0.7-4.7 1.5-9.4 2.5-14.1 1.2-5.1 4.8-6.1 9.2-4.9 2.5 0.7 3.5 3 4.2 5.3 1 3.8 1.9 7.6 2.7 11.4 1.1 5 2.1 10.1 3.1 15.2 0.7 3.3 1.4 6.7 2.2 10q0.1 0.1 0.1 0.3 0.1 0.2 0.2 0.3 0.1 0.2 0.2 0.3 0.1 0.2 0.3 0.3 0.1-0.1 0.2-0.3 0.1-0.1 0.2-0.3 0.1-0.1 0.2-0.3 0.1-0.2 0.2-0.3c1.5-7 3-14.1 4.5-21 1.2-5.3 2.1-10.7 3.7-15.9 1.3-4.2 3.6-6.1 8.8-5.2 3 0.5 4.2 2.7 4.9 5.2 0.7 2.9 1.1 5.9 1.6 8.8 1 5.9 1.9 11.8 2.8 17.7q1.2 7.6 2.4 15.3 0 0.2 0 0.3 0 0.2 0 0.3 0 0.2 0 0.4 0 0.1 0 0.3-3 0-5.8 0c-1 0-1-0.8-1.2-1.4-0.4-2.8-0.8-5.5-1.2-8.3q-1.2-8.7-2.5-17.4-0.9-6.6-1.9-13.2c-0.1-0.8-0.1-1.8-1.1-1.6q-0.2 0.1-0.4 0.3-0.2 0.1-0.4 0.3-0.2 0.2-0.3 0.5-0.1 0.2-0.2 0.5c-2.2 10.4-4.3 20.9-6.5 31.3q-0.2 0.8-0.4 1.5-0.2 0.8-0.5 1.6-0.2 0.7-0.5 1.5-0.3 0.7-0.6 1.4-0.2 0.4-0.4 0.7-0.2 0.4-0.4 0.7-0.3 0.4-0.6 0.7-0.3 0.3-0.6 0.5c-3 2.9-8.6 1.6-10.2-2.7-1.5-3.7-2.1-7.6-2.9-11.5-1.5-7-2.9-14-4.4-21-0.3-1.6-0.5-3.2-0.9-4.7-0.2-0.7-0.8-1.6-1.3-1.6-1-0.2-1.1 0.9-1.2 1.7q-2.2 14.7-4.3 29.3c-0.4 3.2-1 6.4-1.4 9.6-0.1 1-0.4 1.3-1.4 1.3-1.7 0-3.4 0-5.3 0z"/>
	<path id="Layer" fill-rule="evenodd" class="s1" d="m366.6 63.9h-6.7v-45.6c0-2.1 0-2.1 2.2-2.1q9.4 0 18.7 0 0.8 0 1.6 0 0.8 0.1 1.6 0.1 0.8 0.1 1.6 0.2 0.8 0.1 1.5 0.2c1.4 0.2 2.8 0.7 4 1.4 1.2 0.7 2.3 1.6 3.2 2.7 0.8 1.1 1.5 2.3 2 3.6 0.5 1.3 0.7 2.7 0.6 4.1q0.1 1 0 1.9 0 1 0 2-0.1 0.9-0.2 1.9 0 0.9-0.2 1.9-0.2 1.4-0.7 2.6-0.6 1.3-1.5 2.4-0.9 1.1-2.1 1.9-1.1 0.8-2.5 1.2c-1.3 0.5-2.8 0.6-4.2 1-5.4 1.4-11 0.3-16.5 0.7-0.7 0-1.4 0-2.4 0zm0.1-25.1c0.4 0 0.7 0.1 1 0.1q8.1 0 16.3 0 0.2 0 0.5 0 0.3-0.1 0.6-0.1 0.3 0 0.5-0.1 0.3 0 0.6-0.1 0.7-0.1 1.3-0.4 0.7-0.3 1.2-0.8 0.5-0.5 0.8-1.1 0.2-0.7 0.3-1.4 0.1-0.9 0.1-1.7 0.1-0.9 0.1-1.8 0-0.9 0-1.7 0-0.9-0.1-1.8 0-0.4-0.1-0.8-0.1-0.3-0.2-0.7-0.1-0.4-0.3-0.7-0.2-0.4-0.4-0.7c-1-1.7-2.7-2.2-4.6-2.2q-8.4 0-16.9 0-0.1 0-0.2 0 0 0-0.1 0.1-0.1 0-0.2 0-0.1 0-0.2 0z"/>
	<path id="Layer" fill-rule="evenodd" class="s0" d="m290 64c-2 0-4.1 0.1-6.1-0.1-0.5 0-1-0.8-1.3-1.3q-2-5.1-3.9-10.3 0-0.2-0.2-0.5-0.1-0.2-0.3-0.3-0.2-0.2-0.5-0.3-0.3 0-0.5 0-10.6 0-21.2 0-0.3 0-0.5 0-0.3 0.1-0.5 0.3-0.3 0.1-0.4 0.4-0.1 0.2-0.2 0.5c-1.1 3.2-2.3 6.4-3.5 9.6-0.8 2-0.8 2-2.9 2h-4.9c0.9-2.4 1.6-4.4 2.5-6.5q4.7-12.3 9.5-24.5c1.6-4.1 3.2-8.2 4.9-12.3q0.2-0.4 0.4-0.8 0.2-0.4 0.4-0.8 0.2-0.4 0.5-0.8 0.2-0.4 0.5-0.8c2.1-3.1 8.6-2.3 10.1 0.4 2.7 4.8 4.2 10 6.3 14.9 2 4.8 3.7 9.6 5.6 14.4 2 5.4 4.1 10.7 6.2 16q0 0.1 0 0.2 0 0.1 0 0.2 0 0.1 0 0.2 0 0.1 0 0.2zm-14.3-19.6q0-0.1 0-0.2 0-0.1-0.1-0.1 0-0.1 0-0.2 0-0.1 0-0.2-3.7-9.9-7.4-19.8c-0.3-0.8-0.7-1.7-1.7-1.4q-0.2 0-0.4 0.2-0.3 0.1-0.4 0.3-0.2 0.2-0.4 0.4-0.1 0.2-0.2 0.5c-1.6 3.8-3 7.7-4.4 11.6-1.1 2.9-2.2 5.8-3.3 8.9z"/>
	<path id="Layer" class="s2" d="m410.8 16.2v2.3q0 15.6 0 31.3 0.1 0.6 0.1 1.2 0.1 0.6 0.2 1.2 0.1 0.5 0.2 1.1 0.2 0.6 0.3 1.2 0.1 0.5 0.4 1 0.2 0.5 0.6 0.9 0.4 0.4 0.9 0.7 0.4 0.3 0.9 0.4 0.7 0.3 1.4 0.5 0.7 0.3 1.4 0.4 0.8 0.2 1.5 0.3 0.7 0.1 1.5 0.1 0.8-0.1 1.6-0.1 0.8 0 1.6 0 0.9 0 1.7 0 0.8 0 1.6 0.1 0.8 0 1.5-0.1 0.8 0 1.6-0.1 0.7-0.2 1.4-0.4 0.8-0.2 1.5-0.4c3.1-0.9 3.9-3.4 4.3-6.2q0.1-0.4 0.1-0.8 0-0.4 0-0.7 0-0.4 0-0.8 0-0.4 0-0.8 0-15 0-30v-2.4q3 0 5.8 0c0.3 0 0.7 0.5 0.8 0.8q0 0.2 0 0.3 0 0.2 0 0.3 0 0.1 0 0.3 0 0.1 0 0.3 0 15.2 0 30.5c0 3.3-0.2 6.6-1.8 9.6q-0.3 0.8-0.8 1.5-0.5 0.7-1.1 1.3-0.6 0.7-1.3 1.2-0.7 0.5-1.5 0.8-1 0.5-2.1 0.9-1 0.4-2.1 0.6-1.1 0.3-2.3 0.4-1.1 0.2-2.2 0.2c-3.5-0.1-6.9-0.1-10.3 0q-1.2 0-2.4-0.2-1.2-0.2-2.3-0.5-1.1-0.4-2.2-0.9-1.1-0.5-2-1.2-0.9-0.6-1.6-1.3-0.8-0.8-1.3-1.7-0.6-0.9-1-1.9-0.4-1-0.5-2-0.2-0.7-0.3-1.5-0.1-0.7-0.2-1.4-0.1-0.8-0.2-1.5 0-0.8 0-1.5c-0.1-10.6 0-21.1 0-31.6 0-1.8 0-1.8 1.7-1.8z"/>
	<path id="Layer" class="s3" d="m452.5 64v-6.3h2q9.1 0 18.1 0 0.4 0 0.8 0 0.4-0.1 0.7-0.1 0.4 0 0.8-0.1 0.4 0 0.7-0.1 0.8 0 1.5-0.3 0.7-0.3 1.3-0.8 0.6-0.5 0.9-1.1 0.4-0.6 0.6-1.4c0.7-2.5 0.5-6.3-2.9-7.6-1.7-0.7-3.5-1.4-5.3-2-3.8-1.3-7.8-2.2-11.6-3.8-2.7-1.1-5.6-2.5-7.2-5.3q-0.2-0.3-0.4-0.7-0.2-0.3-0.3-0.7-0.2-0.3-0.3-0.7-0.1-0.4-0.2-0.8c-1.1-4.8-0.4-10.5 4.7-13.8q0.9-0.5 1.9-0.9 1-0.4 2-0.7 1-0.2 2-0.3 1.1-0.2 2.1-0.1c6.8-0.2 13.5-0.1 20.3-0.1q0 0 0.1 0 0.1 0 0.2 0 0.1 0.1 0.1 0.1 0.1 0 0.2 0v6.4h-19.4c-1.1 0-2.2 0-3.3 0.1-2 0.2-4.3 2-4.5 3.9-0.4 2.7 0 4.8 2.3 5.9q0.6 0.3 1.1 0.6 0.6 0.2 1.2 0.5 0.5 0.2 1.1 0.5 0.6 0.2 1.1 0.4c4.2 1.4 8.4 2.5 12.4 4q1 0.4 1.9 0.8 0.9 0.5 1.8 1.1 0.9 0.5 1.7 1.2 0.8 0.7 1.5 1.4c2.4 2.9 2.8 6.3 2.5 9.8q-0.1 1.3-0.5 2.5-0.3 1.2-0.9 2.3-0.6 1.2-1.4 2.1-0.8 1-1.7 1.8-0.2 0.2-0.3 0.3-0.2 0.1-0.4 0.2-0.2 0.1-0.4 0.2-0.2 0.1-0.4 0.2c-1.7 0.5-3.5 1.3-5.4 1.3-7.5 0.1-15.1 0.1-22.8 0.1z"/>
	<path id="Layer" fill-rule="evenodd" class="s4" d="m198 41.6q0 1.8-0.1 3.5-0.2 1.8-0.5 3.5-0.3 1.7-0.9 3.3-0.5 1.7-1.2 3.3-0.2 0.5-0.5 1-0.2 0.4-0.5 0.9-0.3 0.4-0.6 0.9-0.3 0.4-0.6 0.8-0.6 0.7-1.3 1.4-0.6 0.7-1.3 1.2-0.8 0.6-1.5 1.1-0.8 0.5-1.6 0.9-1.3 0.7-2.7 1.1-1.4 0.4-2.8 0.6-1.4 0.1-2.9 0.1-1.4-0.1-2.8-0.4-1.5-0.4-3-1-1.4-0.6-2.7-1.5-1.2-0.8-2.3-1.9-1.1-1.1-2-2.4c-2.9-4.4-4-9.3-4.3-14.4q-0.1-1.7-0.1-3.4 0-1.7 0.2-3.4 0.1-1.6 0.5-3.3 0.3-1.6 0.8-3.3c1.6-5.1 4.3-9.4 9.5-11.8q1.5-0.8 3.1-1.2 1.6-0.4 3.2-0.5 1.6 0 3.2 0.2 1.6 0.2 3.2 0.8 1.7 0.5 3.2 1.4 1.6 1 2.8 2.2 1.3 1.2 2.3 2.7 1 1.5 1.6 3.2c2.1 5.4 2.6 8.1 2.6 14.4zm-5.7-0.6q0-1.4-0.1-2.7 0-1.4-0.2-2.7-0.3-1.3-0.6-2.7-0.3-1.3-0.8-2.5c-1.1-3.1-3-5.8-6-7-7-2.6-12.6-0.2-15.2 6.7q-1 2.6-1.6 5.4-0.5 2.8-0.5 5.6 0.1 2.9 0.6 5.6 0.5 2.8 1.6 5.5 0.5 1.4 1.3 2.6 0.8 1.2 1.9 2.1 1.2 1 2.5 1.6 1.3 0.6 2.8 0.8 1 0.2 2 0.3 1 0 1.9-0.2 1-0.2 1.9-0.6 1-0.4 1.8-0.9 0.8-0.6 1.6-1.3 0.7-0.6 1.3-1.4 0.6-0.8 1.1-1.6 0.5-0.9 0.9-1.8 0.5-1.3 0.9-2.6 0.3-1.4 0.6-2.7 0.2-1.4 0.3-2.8 0.1-1.3 0-2.7z"/>
	<path id="Layer" class="s3" d="m239.7 16.4v6.3h-2q-9.1 0-18.3 0.1-0.7 0-1.3 0.1-0.6 0-1.3 0.2-0.6 0.2-1.2 0.4-0.6 0.3-1.1 0.6-1 0.6-1.8 1.4-0.7 0.8-1.3 1.8-0.5 1-0.8 2.1-0.3 1.1-0.3 2.3c-0.2 5.9-0.6 11.8 0.1 17.7 0.8 6.3 3.4 8 10 8.2 5.8 0.2 11.6 0 17.4 0h2.2v6.3c-0.5 0-0.9 0.1-1.4 0.1-6.1 0-12.1 0-18.2 0q-0.7 0-1.4-0.1-0.7 0-1.4-0.1-0.7-0.1-1.4-0.2-0.7-0.2-1.3-0.3c-6-1.4-9.4-5.6-10.9-11.3-1.7-6.1-1.3-12.3-0.9-18.5q0-1.3 0.2-2.5 0.2-1.2 0.5-2.4 0.4-1.2 0.9-2.3 0.4-1.2 1.1-2.2 0.3-0.6 0.6-1.1 0.4-0.5 0.7-1 0.4-0.5 0.9-1 0.4-0.4 0.8-0.8c2.7-2.1 5.6-3.7 9.2-3.8 7 0 14.1-0.1 21.1-0.2q0.1 0 0.2 0 0.1 0 0.1 0.1 0.1 0 0.2 0 0.1 0 0.1 0.1z"/>
	<path id="Layer" class="s5" d="m131.9 64h-5.5v-46.3h5.3v18.1h18.8v-18.1h5.4v46.3h-5.3v-22.4h-18.7z"/>
	<path id="Layer" class="s6" d="m67.8 41.5v17.2h20v5.3h-25.5v-46.3h25.4v5.4h-19.8v12.8h18.5v5.6z"/>
	<path id="Layer" class="s7" d="m90.4 17.6h2.7c3.6 0 3.4 0.1 5.1 3.4 2.4 4.7 4.9 9.2 7.4 13.9q0.1 0.1 0.2 0.2 0.1 0.1 0.1 0.2 0.1 0.1 0.2 0.2 0.1 0.1 0.2 0.2c1.6-2.9 3.1-5.6 4.6-8.4 1.7-3 3.3-6.1 5-9.1q0.1-0.1 0.2-0.2 0.1-0.1 0.2-0.2 0.1 0 0.2-0.1 0.1-0.1 0.2-0.1c1.7 0 3.5 0 5.4 0-0.8 1.5-1.4 2.7-2.1 4q-3.9 6.9-7.9 13.8c-0.8 1.5-1.6 3-2.4 4.6q0 0.2-0.1 0.4 0 0.2 0 0.4 0 0.2 0 0.3 0.1 0.2 0.1 0.4c2.3 4.2 4.6 8.4 6.9 12.6 1.7 3.2 3.5 6.5 5.3 10-2 0-3.7 0-5.5 0q-0.2-0.1-0.4-0.2-0.1 0-0.3-0.2-0.2-0.1-0.3-0.2-0.1-0.2-0.2-0.3c-1.5-2.7-2.9-5.4-4.3-8l-5-9.3c-1.3 2.1-2.4 4-3.5 6q-3 5.5-6 11.1-0.1 0.3-0.3 0.5-0.2 0.3-0.5 0.4-0.3 0.2-0.6 0.2-0.3 0.1-0.6 0c-1.5 0-2.9 0-4.5 0 1.3-2.4 2.6-4.7 3.8-6.9 2.9-5.1 5.8-10.3 8.6-15.4q0.1-0.2 0.1-0.3 0.1-0.2 0.1-0.4 0-0.2-0.1-0.4 0-0.2-0.1-0.4c-1.4-2.8-2.9-5.5-4.4-8.3-2.5-4.6-5-9.1-7.5-13.7-0.1-0.2 0-0.3 0-0.7z"/>
	<path id="Layer" class="s8" d="m25.2 23.3v-5.6h32.8v5.4h-13.7v40.8h-5.4v-40.6z"/>
</svg>